
<svg xmlns="http://www.w3.org/2000/svg" version="1.1" xmlns:xlink="http://www.w3.org/1999/xlink" preserveAspectRatio="none" x="0px" y="0px" width="341px" height="163px" viewBox="0 0 341 163">
<defs>
<g id="Layer0_0_FILL">
<path fill="#FFFFFF" stroke="none" d="
M 194.45 33.1
L 194.45 0 0 0 0 163.6 194.45 163.6 194.45 130.55 33.25 130.55 33.25 125.6 194.45 125.6 194.45 38 35.05 38 35.05 33.1 194.45 33.1
M 170.55 112.95
Q 177.95 112.65 184.7 111.75 184.2 113.5 184.2 114.9 184.2 116.3 184.7 118.05 173.45 117.5 166.15 117.5 158.9 117.5 147.45 118.05 148.25 99.95 148.25 90.85
L 148.25 72.8
Q 148.25 63.65 147.45 45.65 150.3 46.15 152.4 46.15 154.5 46.15 157.35 45.65 156.55 63.65 156.55 72.8 156.55 82.35 156.85 113.1 166.05 113.1 170.55 112.95
M 99.7 45.65
Q 104.55 46.15 108.55 46.15 110 46.15 114.25 45.9 118.45 45.65 119.75 45.65
L 119.9 45.65
Q 127.55 45.65 132 47.95 139.95 52.05 139.95 63.35 139.95 73.95 133.15 79.7 128 84.05 119.75 85.1 117.35 85.4 115.35 85.4 111.5 85.4 107.9 85.1
L 107.9 90.85
Q 107.9 98.65 108.65 118.05 105.8 117.5 104.15 117.5 102.55 117.5 99.7 118.05 100.4 99.95 100.4 90.85
L 100.4 72.8
Q 100.4 63.65 99.7 45.65
M 82.75 46.15
Q 84.5 46.15 86.9 45.65 86.2 63.65 86.2 72.8
L 86.2 90.85
Q 86.2 99.95 86.9 118.05 84.25 117.5 82.75 117.5 81.2 117.5 78.65 118.05 79.3 98.45 79.3 90.85
L 79.3 81.4
Q 67.5 81.2 61.75 81.2 55.95 81.2 44.15 81.4
L 44.15 90.85
Q 44.15 99.95 44.85 118.05 42.2 117.5 40.7 117.5 39.25 117.5 36.6 118.05 37.25 101.25 37.25 90.85
L 37.25 72.8
Q 37.25 62.35 36.6 45.65 39 46.15 40.7 46.15 42.45 46.15 44.85 45.65 44.15 63.65 44.15 72.8
L 44.15 76.5
Q 50.05 76.6 61.75 76.8 67.6 76.8 79.3 76.5
L 79.3 72.8
Q 79.3 65.15 78.65 45.65 81 46.15 82.75 46.15
M 116.15 49.5
L 107.9 49.5 107.9 80.7
Q 111 81.5 114.4 81.5 117.35 81.5 119.75 80.9 124.95 79.65 127.9 76.05 131.55 71.6 131.55 64 131.55 56.6 128.4 53.2 125.65 50.2 119.75 49.65 118.05 49.5 116.15 49.5 Z"/>
</g>

<g id="Layer0_1_FILL">
<path fill="#FFFFFF" stroke="none" d="
M 726.3 484.9
L 726.3 479.95 579.85 479.95 579.85 484.9 726.3 484.9 Z"/>
</g>

<g id="Layer0_2_FILL">
<path fill="#FFFFFF" stroke="none" d="
M 726.1 392.35
L 726.1 387.45 579.85 387.45 579.85 392.35 726.1 392.35 Z"/>
</g>

<g id="Layer0_3_FILL">
<path fill="#FFFFFF" stroke="none" d="
M 653.25 492
L 650.4 492 657.2 504.15 657.2 512.35 659.65 512.35 659.65 504.15 666.45 492 663.6 492 658.4 501.8 653.25 492 Z"/>
</g>

<g id="Layer0_4_FILL">
<path fill="#FFFFFF" stroke="none" d="
M 614.45 492
L 611.7 492 604.9 512.35 607.5 512.35 609.4 506.2 616.45 506.2 618.4 512.35 620.95 512.35 614.45 492
M 612.9 495.05
L 612.95 495.05 615.75 504 610.1 504 612.9 495.05 Z"/>
</g>

<g id="Layer0_5_FILL">
<path fill="#FFFFFF" stroke="none" d="
M 718.25 491.5
Q 715.2 491.5 713.45 493.3 711.85 494.95 711.85 497.55 711.85 499.55 712.95 500.8 714.05 502.05 716.45 502.7
L 719.7 503.65
Q 721.6 504.15 722.4 504.9 723.15 505.7 723.15 507.1 723.15 508.8 721.75 509.7 720.45 510.5 718.35 510.5 716.3 510.5 714.95 509.3 713.5 508 713.5 505.75
L 711.25 505.75 711.25 506.1
Q 711.25 509 713 510.85 714.9 512.9 718.3 512.9 721.4 512.9 723.3 511.6 725.6 510 725.6 506.65 725.6 504.55 724.4 503.2 723.25 501.9 720.8 501.2
L 717.2 500.25
Q 714.15 499.4 714.15 497.4 714.15 493.85 718.35 493.85 720.5 493.85 721.65 495.05 722.7 496.15 722.8 498
L 725.05 498
Q 725.05 494.85 723.15 493.15 721.35 491.5 718.25 491.5 Z"/>
</g>

<g id="Layer0_6_FILL">
<path fill="#FFFFFF" stroke="none" d="
M 700 492
L 691.7 492 691.7 512.35 694.1 512.35 694.1 503.65 700 503.65
Q 702 503.65 702.75 504.85 703.25 505.65 703.25 507.25 703.25 510.9 703.65 512.35
L 706.65 512.35 706.65 511.9
Q 706.1 511.55 705.9 511.15 705.75 510.75 705.75 509.85
L 705.6 506.2
Q 705.55 504.3 704.85 503.4 704.45 502.85 703.45 502.35 704.6 501.6 705.15 500.75 705.95 499.5 705.95 497.5 705.95 492 700 492
M 694.1 494.4
L 700.2 494.4
Q 703.45 494.4 703.45 497.75 703.45 501.3 699.75 501.3
L 694.1 501.3 694.1 494.4 Z"/>
</g>

<g id="Layer0_7_FILL">
<path fill="#FFFFFF" stroke="none" d="
M 684.55 492
L 671.4 492 671.4 512.35 684.7 512.35 684.7 510 673.8 510 673.8 503.05 683.7 503.05 683.7 500.7 673.8 500.7 673.8 494.4 684.55 494.4 684.55 492 Z"/>
</g>

<g id="Layer0_8_FILL">
<path fill="#FFFFFF" stroke="none" d="
M 626.2 492
L 623.55 492 628.25 512.35 630.8 512.35 635 495.5 635.05 495.5 639.15 512.35 641.7 512.35 646.45 492 643.75 492 640.4 508.55 640.35 508.55 636.3 492 633.65 492 629.6 508.55 629.55 508.55 626.2 492 Z"/>
</g>

<g id="Layer0_9_FILL">
<path fill="#FFFFFF" stroke="none" d="
M 591.65 492
L 589.25 492 589.25 512.35 600.9 512.35 600.9 510 591.65 510 591.65 492 Z"/>
</g>

<g id="Layer0_10_FILL">
<path fill="#FFFFFF" stroke="none" d="
M 611.55 431.65
L 611.55 400.7 605.85 400.7 605.85 412.45 595.1 412.45 595.1 400.7 589.4 400.7 589.4 431.65 595.1 431.65 595.1 417.8 605.85 417.8 605.85 431.65 611.55 431.65 Z"/>
</g>

<g id="Layer0_11_FILL">
<path fill="#FFFFFF" stroke="none" d="
M 658.25 400.7
L 652.5 400.7 652.5 431.65 671.85 431.65 671.85 426.05 658.25 426.05 658.25 400.7 Z"/>
</g>

<g id="Layer0_12_FILL">
<path fill="#FFFFFF" stroke="none" d="
M 635.25 400.7
L 628.75 400.7 618.95 431.65 624.95 431.65 626.85 425.25 636.95 425.25 638.7 431.65 644.9 431.65 635.25 400.7
M 631.85 407.75
L 631.9 407.65 631.95 407.65 635.35 419.9 628.4 419.9 631.85 407.75 Z"/>
</g>

<g id="Layer0_13_FILL">
<path fill="#FFFFFF" stroke="none" d="
M 699.05 431.65
L 699.05 426.05 685.45 426.05 685.45 400.7 679.75 400.7 679.75 431.65 699.05 431.65 Z"/>
</g>

<g id="Layer0_14_FILL">
<path fill="#FFFFFF" stroke="none" d="
M 724.65 441.4
L 704.6 441.4 704.6 472.35 725.3 472.35 725.3 466.75 710.1 466.75 710.1 458.95 723.5 458.95 723.5 453.6 710.1 453.6 710.1 446.75 724.65 446.75 724.65 441.4 Z"/>
</g>

<g id="Layer0_15_FILL">
<path fill="#FFFFFF" stroke="none" d="
M 665.65 441.4
L 659.15 441.4 653.75 454.85 648.1 441.4 641.35 441.4 650.8 460.65 650.8 472.35 656.5 472.35 656.5 460.75 665.65 441.4 Z"/>
</g>

<g id="Layer0_16_FILL">
<path fill="#FFFFFF" stroke="none" d="
M 695.3 441.4
L 689.8 441.4 689.8 462.5 689.75 462.5 678.9 441.4 673.1 441.4 673.1 472.35 678.6 472.35 678.6 451.4 678.7 451.4 689.5 472.35 695.3 472.35 695.3 441.4 Z"/>
</g>

<g id="Layer0_17_FILL">
<path fill="#FFFFFF" stroke="none" d="
M 601.55 441.4
L 589.1 441.4 589.1 472.35 594.8 472.35 594.8 461.2 601.05 461.2
Q 605.25 461.2 607.7 458.45 610.1 455.7 610.1 451.3 610.1 446.55 608 444.05 605.8 441.4 601.55 441.4
M 600.25 446.75
Q 604.4 446.75 604.4 451.3 604.4 455.9 600.25 455.9
L 594.8 455.9 594.8 446.75 600.25 446.75 Z"/>
</g>

<g id="Layer0_18_FILL">
<path fill="#FFFFFF" stroke="none" d="
M 630.05 441.4
L 623.55 441.4 613.75 472.35 619.8 472.35 621.7 465.95 631.8 465.95 633.55 472.35 639.75 472.35 630.05 441.4
M 626.7 448.4
L 626.8 448.4 630.2 460.6 623.2 460.6 626.7 448.45 626.7 448.4 Z"/>
</g>
</defs>

<g transform="matrix( 1, 0, 0, 1, 0,0) ">
<use xlink:href="#Layer0_0_FILL"/>
</g>

<g transform="matrix( 1, 0, 0, 1, -385.4,-354.35) ">
<use xlink:href="#Layer0_1_FILL"/>
</g>

<g transform="matrix( 1, 0, 0, 1, -385.4,-354.35) ">
<use xlink:href="#Layer0_2_FILL"/>
</g>

<g transform="matrix( 1, 0, 0, 1, -385.4,-354.35) ">
<use xlink:href="#Layer0_3_FILL"/>
</g>

<g transform="matrix( 1, 0, 0, 1, -385.4,-354.35) ">
<use xlink:href="#Layer0_4_FILL"/>
</g>

<g transform="matrix( 1, 0, 0, 1, -385.4,-354.35) ">
<use xlink:href="#Layer0_5_FILL"/>
</g>

<g transform="matrix( 1, 0, 0, 1, -385.4,-354.35) ">
<use xlink:href="#Layer0_6_FILL"/>
</g>

<g transform="matrix( 1, 0, 0, 1, -385.4,-354.35) ">
<use xlink:href="#Layer0_7_FILL"/>
</g>

<g transform="matrix( 1, 0, 0, 1, -385.4,-354.35) ">
<use xlink:href="#Layer0_8_FILL"/>
</g>

<g transform="matrix( 1, 0, 0, 1, -385.4,-354.35) ">
<use xlink:href="#Layer0_9_FILL"/>
</g>

<g transform="matrix( 1, 0, 0, 1, -385.4,-354.35) ">
<use xlink:href="#Layer0_10_FILL"/>
</g>

<g transform="matrix( 1, 0, 0, 1, -385.4,-354.35) ">
<use xlink:href="#Layer0_11_FILL"/>
</g>

<g transform="matrix( 1, 0, 0, 1, -385.4,-354.35) ">
<use xlink:href="#Layer0_12_FILL"/>
</g>

<g transform="matrix( 1, 0, 0, 1, -385.4,-354.35) ">
<use xlink:href="#Layer0_13_FILL"/>
</g>

<g transform="matrix( 1, 0, 0, 1, -385.4,-354.35) ">
<use xlink:href="#Layer0_14_FILL"/>
</g>

<g transform="matrix( 1, 0, 0, 1, -385.4,-354.35) ">
<use xlink:href="#Layer0_15_FILL"/>
</g>

<g transform="matrix( 1, 0, 0, 1, -385.4,-354.35) ">
<use xlink:href="#Layer0_16_FILL"/>
</g>

<g transform="matrix( 1, 0, 0, 1, -385.4,-354.35) ">
<use xlink:href="#Layer0_17_FILL"/>
</g>

<g transform="matrix( 1, 0, 0, 1, -385.4,-354.35) ">
<use xlink:href="#Layer0_18_FILL"/>
</g>
</svg>
