
<svg xmlns="http://www.w3.org/2000/svg" version="1.1" xmlns:xlink="http://www.w3.org/1999/xlink" preserveAspectRatio="none" x="0px" y="0px" width="310px" height="144px" viewBox="0 0 310 144">
<defs>
<g id="Layer0_0_MEMBER_0_FILL">
<path fill="#FFFFFF" stroke="none" d="
M 353.35 296
Q 356.2 296.75 359.5 296.75 362.35 296.75 365 296.05 367.8 295.45 370.2 293.65 372.65 291.8 374.1 288.9 375.6 285.9 375.6 281.1 375.6 276.95 374.6 274.5 373.25 271.9 371.6 270.6 369.55 269.1 367.1 268.7 364.1 268.2 361.1 268.2
L 353.35 268.2 353.35 296 Z"/>
</g>

<g id="Layer0_0_MEMBER_1_FILL">
<path fill="#FFFFFF" stroke="none" d="
M 476.75 266
L 470.7 266 470.7 276.9 459.5 276.9 459.5 266 453.35 266 453.35 293.5 459.5 293.5 459.5 282.5 470.7 282.5 470.7 293.5 476.75 293.5 476.75 266 Z"/>
</g>

<g id="Layer0_0_MEMBER_2_FILL">
<path fill="#FFFFFF" stroke="none" d="
M 479 293.55
L 485.25 293.55 487.75 287.35 499.5 287.35 502 293.55 508.25 293.55 496.5 265.75 490.85 265.75 479 293.55
M 497.2 282
L 489.75 282 493.5 273.1 497.2 282 Z"/>
</g>

<g id="Layer0_0_MEMBER_3_FILL">
<path fill="#FFFFFF" stroke="none" d="
M 510.6 266
L 510.6 293.5 530.4 293.5 530.4 288.1 516.55 288.1 516.55 266 510.6 266 Z"/>
</g>

<g id="Layer0_0_MEMBER_4_FILL">
<path fill="#FFFFFF" stroke="none" d="
M 532.55 266
L 532.55 293.5 552.4 293.5 552.4 288.1 538.55 288.1 538.55 266 532.55 266 Z"/>
</g>

<g id="Layer0_0_MEMBER_5_FILL">
<path fill="#FFFFFF" stroke="none" d="
M 472.35 303.2
Q 471.15 302 469.05 301.2 467.25 300.5 464.65 300.5
L 453.25 300.5 453.25 328.1 459.35 328.1 459.35 319.8 464 319.8
Q 466.35 319.8 468.35 319.2 470.4 318.6 471.85 317.4 473.35 316.2 474.25 314.4 475.15 312.6 475.15 310.2
L 475.15 310.1
Q 475.15 307.9 474.45 306.2 473.7 304.4 472.35 303.2
M 469.05 310.05
L 469.05 310.15
Q 469.05 311.95 467.75 313.15 466.65 314.4 464.25 314.4
L 464.25 314.25 459.45 314.25 459.45 305.85 464.15 305.85
Q 466.35 305.85 467.75 306.95 469.05 307.95 469.05 310.05 Z"/>
</g>

<g id="Layer0_0_MEMBER_6_FILL">
<path fill="#FFFFFF" stroke="none" d="
M 484.75 300.25
L 473 328.05 479.15 328.05 481.65 321.85 493.35 321.85 495.85 328.05 502.15 328.05 490.35 300.25 484.75 300.25
M 487.5 307.7
L 491.2 316.6 483.75 316.6 487.5 307.7 Z"/>
</g>

<g id="Layer0_0_MEMBER_7_FILL">
<path fill="#FFFFFF" stroke="none" d="
M 517.05 300.5
L 510.35 311.6 503.85 300.5 496.75 300.5 507.35 317.2 507.35 328.1 513.4 328.1 513.4 317.1 524 300.5 517.05 300.5 Z"/>
</g>

<g id="Layer0_0_MEMBER_8_FILL">
<path fill="#FFFFFF" stroke="none" d="
M 531.75 328.1
L 531.75 310.6 545.2 328.1 550.25 328.1 550.25 300.5 544.4 300.5 544.4 317.5 531.4 300.5 525.75 300.5 525.75 328.1 531.75 328.1 Z"/>
</g>

<g id="Layer0_0_MEMBER_9_FILL">
<path fill="#FFFFFF" stroke="none" d="
M 554 300.5
L 554 328.1 575 328.1 575 322.7 560 322.7 560 316.9 573 316.9 573 311.5 560 311.5 560 305.9 574.75 305.9 574.75 300.5 554 300.5 Z"/>
</g>

<g id="Layer0_0_MEMBER_10_FILL">
<path fill="#FFFFFF" stroke="none" d="
M 453.35 347.1
L 453.35 364.7 465.75 364.7 465.75 361.9 456.5 361.9 456.5 347.1 453.35 347.1 Z"/>
</g>

<g id="Layer0_0_MEMBER_11_FILL">
<path fill="#FFFFFF" stroke="none" d="
M 467.6 364.7
L 470.8 364.7 472.6 360.4 480.85 360.4 482.65 364.7 485.95 364.7 478.15 347 475.25 347 467.6 364.7
M 476.7 350.7
L 479.7 357.7 473.7 357.7 476.7 350.7 Z"/>
</g>

<g id="Layer0_0_MEMBER_12_FILL">
<path fill="#FFFFFF" stroke="none" d="
M 509.7 347.1
L 506.35 347.1 502.2 360.2 497.85 347 495.25 347 490.85 360.2 486.7 347.1 483.35 347.1 489.5 364.75 492.2 364.75 496.5 352.2 500.85 364.75 503.5 364.75 509.7 347.1 Z"/>
</g>

<g id="Layer0_0_MEMBER_13_FILL">
<path fill="#FFFFFF" stroke="none" d="
M 517.75 357.75
L 517.75 364.7 520.9 364.7 520.9 357.7 527.9 347.1 524.25 347.1 519.25 354.9 514.4 347.1 510.75 347.1 517.75 357.75 Z"/>
</g>

<g id="Layer0_0_MEMBER_14_FILL">
<path fill="#FFFFFF" stroke="none" d="
M 540.9 357.2
L 540.9 354.4 532 354.4 532 349.9 542 349.9 542 347.1 529 347.1 529 364.7 542.05 364.7 542.05 361.9 532 361.9 532 357.2 540.9 357.2 Z"/>
</g>

<g id="Layer0_0_MEMBER_15_FILL">
<path fill="#FFFFFF" stroke="none" d="
M 557.1 357.3
Q 557.6 357 558.4 356.2 559 355.6 559.3 354.7 559.6 353.8 559.6 352.7 559.6 351.4 559.2 350.6 558.75 349.55 558.1 348.9 557.4 348.05 556 347.6 554.65 347.1 553.1 347.1
L 545.3 347.1 545.3 364.7 548.4 364.7 548.4 358.6 552.3 358.6 556.6 364.7 560.2 364.7 555.4 358
Q 556.6 357.6 557.1 357.3
M 555.5 350.45
Q 556.5 351.15 556.5 352.65
L 556.5 352.75
Q 556.5 354.3 555.5 355 554.4 355.75 552.75 355.75
L 552.75 355.65 548.25 355.65 548.25 349.75 552.75 349.75
Q 554.65 349.75 555.5 350.45 Z"/>
</g>

<g id="Layer0_0_MEMBER_16_FILL">
<path fill="#FFFFFF" stroke="none" d="
M 562.15 352.05
L 562.15 352.15
Q 562.15 353.45 562.55 354.25 562.85 355 563.65 355.65 564.25 356.15 565.45 356.65
L 569.95 357.95 571.15 358.55
Q 571.55 358.8 571.75 359.25 571.95 359.65 571.95 360.05 571.95 361.1 571.15 361.65 570.25 362.25 568.85 362.25 567.2 362.25 565.85 361.65 565.05 361.25 563.25 359.95
L 561.35 362.15
Q 562.75 363.4 564.75 364.25 566.65 365 568.7 365 569.55 365 571.25 364.75 572.6 364.4 573.25 363.75 574.15 363 574.55 362.05 575.05 361.05 575.05 359.85 575.05 358.95 574.65 357.95 574.05 356.95 573.55 356.55 572.85 356 571.75 355.55 570.7 355.15 569.25 354.75 567.65 354.35 567.2 354.15 566.4 353.9 565.9 353.55 565.45 353.25 565.3 352.85 565.1 352.25 565.1 351.95
L 565.1 351.85
Q 565.1 351 565.9 350.35 566.65 349.75 568 349.75 569.05 349.75 570.4 350.25 571.75 350.75 572.8 351.55
L 574.5 349.25
Q 573.4 348.25 571.6 347.55 570.1 346.95 568.1 346.95 566.65 346.95 565.7 347.35 564.6 347.65 563.75 348.35 563.1 348.9 562.55 349.95 562.15 350.9 562.15 352.05 Z"/>
</g>

<g id="Layer0_0_MEMBER_17_FILL">
<path fill="#FFFFFF" stroke="none" d="
M 439.5 337.7
L 439.5 339.9 575.7 339.9 575.7 337.7 439.5 337.7 Z"/>
</g>

<g id="Layer0_0_MEMBER_18_FILL">
<path fill="#FFFFFF" stroke="none" d="
M 439.5 339.9
L 439.5 337.65 439.35 337.65 439.35 339.9 439.5 339.9
M 439.35 253.9
L 439.35 224.8 266.35 224.8 266.35 369 439.35 369 439.35 339.9 288.1 339.9 288.1 337.65 439.35 337.65 439.35 256.1 288.1 256.1 288.1 253.9 439.35 253.9
M 331 264.65
Q 334.65 264.65 335.25 264.55
L 334.75 276.75
Q 334.55 284.75 334.55 289
L 334.55 305.2
Q 334.55 309.4 334.75 317.4 334.85 321.8 335.25 329.2 334.3 329.15 331.05 329.15 327.85 329.15 326.85 329.2
L 327.35 317.4
Q 327.55 309.4 327.55 305.2
L 327.55 296.7 296.75 296.7 296.75 305.2
Q 296.75 310.75 297 317.4 297.15 324.2 297.5 329.2 296.55 329.15 293.3 329.15 290.05 329.15 289.1 329.2 289.35 321.4 289.6 317.4 289.8 309.4 289.8 305.2
L 289.8 289
Q 289.7 278.75 289.6 276.75 289.5 273.15 289.1 264.55 289.65 264.65 293.25 264.65 296.9 264.65 297.5 264.55 297.25 268.65 297 276.75 296.75 283.4 296.75 289
L 296.75 292.25 327.55 292.25 327.55 289
Q 327.55 284.75 327.35 276.75 327.25 273.15 326.85 264.55 327.4 264.65 331 264.65
M 345.7 264.55
L 349.8 264.85
Q 351.2 264.95 353.9 264.95 355.4 264.95 356.4 264.85 357.4 264.75 359.4 264.75
L 362.3 264.65
Q 363.2 264.55 364.6 264.55 366.5 264.55 367.8 264.65 369.65 264.8 371.8 265.25 373.8 265.7 375.9 266.65 377.9 267.5 379.6 269.35 381.25 271.15 382.3 273.85 383.3 276.4 383.3 280.45 383.3 286.65 380.9 290.55 378.5 294.45 374.9 296.55 371.15 298.75 367.4 299.45 363.1 300.25 360.3 300.25
L 356.7 300.25
Q 355.6 300.25 353.4 300.05
L 353.4 305.25
Q 353.4 309.45 353.6 317.45 353.7 321.85 354.1 329.25 353.15 329.2 349.9 329.2 346.7 329.2 345.7 329.25
L 346.2 317.45
Q 346.4 309.45 346.4 305.25
L 346.2 276.75
Q 346.1 273.15 345.7 264.55
M 390.25 264.55
Q 390.8 264.65 394.45 264.65 398.05 264.65 398.65 264.55
L 398.15 276.75
Q 397.95 284.75 397.95 289 397.95 303.7 398.05 309.5
L 398.25 325.1
Q 406.15 325.1 409.85 325 417.5 324.8 424 323.9 423.8 324.75 423.8 326.6 423.8 328.5 424 329.25 418.7 329.05 414 329.05
L 398.2 329.05
Q 395.7 329.05 390.3 329.25
L 390.8 317.5
Q 391 309.5 391 305.25
L 391 289
Q 391.15 283.05 390.75 276.75 390.6 270.2 390.25 264.55
M 439.35 253.9
L 439.35 256.1 439.5 256.1 439.5 253.9 439.35 253.9 Z"/>
</g>

<g id="Layer0_0_MEMBER_19_FILL">
<path fill="#FFFFFF" stroke="none" d="
M 439.5 253.9
L 439.5 256.1 575.7 256.1 575.7 253.9 439.5 253.9 Z"/>
</g>
</defs>

<g transform="matrix( 1, 0, 0, 1, -266.35,-224.8) ">
<use xlink:href="#Layer0_0_MEMBER_0_FILL"/>
</g>

<g transform="matrix( 1, 0, 0, 1, -266.35,-224.8) ">
<use xlink:href="#Layer0_0_MEMBER_1_FILL"/>
</g>

<g transform="matrix( 1, 0, 0, 1, -266.35,-224.8) ">
<use xlink:href="#Layer0_0_MEMBER_2_FILL"/>
</g>

<g transform="matrix( 1, 0, 0, 1, -266.35,-224.8) ">
<use xlink:href="#Layer0_0_MEMBER_3_FILL"/>
</g>

<g transform="matrix( 1, 0, 0, 1, -266.35,-224.8) ">
<use xlink:href="#Layer0_0_MEMBER_4_FILL"/>
</g>

<g transform="matrix( 1, 0, 0, 1, -266.35,-224.8) ">
<use xlink:href="#Layer0_0_MEMBER_5_FILL"/>
</g>

<g transform="matrix( 1, 0, 0, 1, -266.35,-224.8) ">
<use xlink:href="#Layer0_0_MEMBER_6_FILL"/>
</g>

<g transform="matrix( 1, 0, 0, 1, -266.35,-224.8) ">
<use xlink:href="#Layer0_0_MEMBER_7_FILL"/>
</g>

<g transform="matrix( 1, 0, 0, 1, -266.35,-224.8) ">
<use xlink:href="#Layer0_0_MEMBER_8_FILL"/>
</g>

<g transform="matrix( 1, 0, 0, 1, -266.35,-224.8) ">
<use xlink:href="#Layer0_0_MEMBER_9_FILL"/>
</g>

<g transform="matrix( 1, 0, 0, 1, -266.35,-224.8) ">
<use xlink:href="#Layer0_0_MEMBER_10_FILL"/>
</g>

<g transform="matrix( 1, 0, 0, 1, -266.35,-224.8) ">
<use xlink:href="#Layer0_0_MEMBER_11_FILL"/>
</g>

<g transform="matrix( 1, 0, 0, 1, -266.35,-224.8) ">
<use xlink:href="#Layer0_0_MEMBER_12_FILL"/>
</g>

<g transform="matrix( 1, 0, 0, 1, -266.35,-224.8) ">
<use xlink:href="#Layer0_0_MEMBER_13_FILL"/>
</g>

<g transform="matrix( 1, 0, 0, 1, -266.35,-224.8) ">
<use xlink:href="#Layer0_0_MEMBER_14_FILL"/>
</g>

<g transform="matrix( 1, 0, 0, 1, -266.35,-224.8) ">
<use xlink:href="#Layer0_0_MEMBER_15_FILL"/>
</g>

<g transform="matrix( 1, 0, 0, 1, -266.35,-224.8) ">
<use xlink:href="#Layer0_0_MEMBER_16_FILL"/>
</g>

<g transform="matrix( 1, 0, 0, 1, -266.35,-224.8) ">
<use xlink:href="#Layer0_0_MEMBER_17_FILL"/>
</g>

<g transform="matrix( 1, 0, 0, 1, -266.35,-224.8) ">
<use xlink:href="#Layer0_0_MEMBER_18_FILL"/>
</g>

<g transform="matrix( 1, 0, 0, 1, -266.35,-224.8) ">
<use xlink:href="#Layer0_0_MEMBER_19_FILL"/>
</g>
</svg>
